<svg width="287" height="287" viewBox="0 0 287 287" fill="none" xmlns="http://www.w3.org/2000/svg">
<path d="M253.635 4.24219H31.9525C16.6485 4.24219 4.24219 16.6485 4.24219 31.9525V253.635C4.24219 268.939 16.6485 281.346 31.9525 281.346H253.635C268.939 281.346 281.346 268.939 281.346 253.635V31.9525C281.346 16.6485 268.939 4.24219 253.635 4.24219Z" fill="white"/>
<path d="M253.635 4.24219H31.9525C16.6485 4.24219 4.24219 16.6485 4.24219 31.9525V253.635C4.24219 268.939 16.6485 281.346 31.9525 281.346H253.635C268.939 281.346 281.346 268.939 281.346 253.635V31.9525C281.346 16.6485 268.939 4.24219 253.635 4.24219Z" fill="#07C27F" fill-opacity="0.2"/>
<path fill-rule="evenodd" clip-rule="evenodd" d="M118.547 203.411H130.671L160.979 151.887H194.318C199.349 151.887 203.411 147.825 203.411 142.795C203.411 137.763 199.349 133.702 194.318 133.702H160.979L130.671 82.1777H118.547L133.702 133.702H100.362L91.2699 118.548H82.1777L88.2392 142.795L82.1777 167.041H91.2699L100.362 151.887H133.702L118.547 203.411Z" fill="#07C27F"/>
</svg>
