<svg width="164" height="39" viewBox="0 0 164 39" fill="none" xmlns="http://www.w3.org/2000/svg">
<path fill-rule="evenodd" clip-rule="evenodd" d="M48.8941 24.8212C53.1165 24.8212 55.2143 23.4002 55.2143 18.9496C55.2143 14.633 53.1431 13.0777 49.2127 13.0777H47.5664V24.8212H48.8941ZM43.8223 9.61914H49.2924C55.4534 9.61914 58.9851 13.0511 58.9851 19.1105C58.9851 25.0625 55.5595 28.3066 49.266 28.3066H43.8223V9.61914Z" fill="#3433FA"/>
<path fill-rule="evenodd" clip-rule="evenodd" d="M69.3937 23.1996H66.3751C65.6136 23.1996 65.0968 23.3064 64.7706 23.5464C64.4441 23.7599 64.2809 24.0802 64.2809 24.4803C64.2809 25.2808 64.9609 25.8679 66.2117 25.8679C67.9251 25.8679 69.3664 24.7203 69.3937 23.1996ZM73.0648 20.238V28.5625H69.6927L69.4208 27.0418C68.4689 28.3758 66.9733 28.856 65.6136 28.856C62.7039 28.856 60.6096 27.015 60.6096 24.427C60.6096 22.8795 61.3166 21.7589 62.5404 21.1451C63.4109 20.7182 64.4987 20.5315 65.8584 20.5315H69.3937V20.238C69.3937 19.0373 68.4962 18.2635 66.9733 18.2635C65.7766 18.2635 64.6346 18.7705 63.5468 19.9712L60.8815 17.7833C62.5134 15.9691 64.7433 15.1152 67.1365 15.1152C70.8075 15.1152 73.0648 17.0894 73.0648 20.238Z" fill="#3433FA"/>
<path fill-rule="evenodd" clip-rule="evenodd" d="M78.6368 27.931L73.6063 15.1152H77.5986L80.553 23.7754L83.7205 15.1152H87.686L80.1538 33.8027H76.2414L78.6368 27.931Z" fill="#3433FA"/>
<path fill-rule="evenodd" clip-rule="evenodd" d="M87.686 25.094L90.5475 23.8133C90.8683 24.6405 91.3765 25.8945 93.168 25.8945C94.4785 25.8945 94.9601 25.2274 94.9601 24.6938C94.9601 22.6661 88.4079 23.8668 88.4079 19.0908C88.4079 16.3426 90.8417 15.1152 93.3017 15.1152C95.6553 15.1152 97.3935 16.2358 98.4097 17.997L95.6285 19.5444C95.2274 18.824 94.6122 17.8636 93.2217 17.8636C92.3391 17.8636 91.831 18.2903 91.831 18.7972C91.831 20.665 98.5166 19.4376 98.5166 24.3202C98.5166 27.4953 95.7356 28.856 93.2485 28.856C90.4139 28.856 88.3013 27.0418 87.686 25.094Z" fill="#3433FA"/>
<path fill-rule="evenodd" clip-rule="evenodd" d="M112.596 19.6466V28.3066H108.925V20.5582C108.925 18.7886 108.164 17.9575 106.586 17.9575C104.438 17.9575 103.84 19.6735 103.84 23.2661V28.3066H100.141V9.61914H103.84V16.4561C104.71 15.33 106.043 14.7939 107.756 14.7939C110.802 14.7939 112.596 16.5901 112.596 19.6466Z" fill="#3433FA"/>
<path fill-rule="evenodd" clip-rule="evenodd" d="M123.792 20.4515C123.739 19.0107 122.544 18.1303 121.056 18.1303C119.224 18.1303 118.48 19.3843 118.321 20.4515H123.792ZM127.138 23.1997H118.348C118.507 24.587 119.436 25.5744 121.322 25.5744C122.411 25.5744 123.446 25.2008 124.27 24.2134L126.766 26.428C125.359 28.0022 123.553 28.856 121.295 28.856C116.622 28.856 114.762 25.4943 114.762 22.0523C114.762 18.6906 116.568 15.1152 121.083 15.1152C125.172 15.1152 127.218 18.1036 127.218 21.9457C127.218 22.3459 127.191 22.7195 127.138 23.1997Z" fill="#3433FA"/>
<path fill-rule="evenodd" clip-rule="evenodd" d="M137.871 20.4515C137.818 19.0107 136.623 18.1303 135.136 18.1303C133.303 18.1303 132.56 19.3843 132.401 20.4515H137.871ZM141.218 23.1997H132.427C132.587 24.587 133.516 25.5744 135.402 25.5744C136.491 25.5744 137.526 25.2008 138.35 24.2134L140.846 26.428C139.438 28.0022 137.632 28.856 135.375 28.856C130.701 28.856 128.842 25.4943 128.842 22.0523C128.842 18.6906 130.648 15.1152 135.163 15.1152C139.252 15.1152 141.297 18.1036 141.297 21.9457C141.297 22.3459 141.271 22.7195 141.218 23.1997Z" fill="#3433FA"/>
<path fill-rule="evenodd" clip-rule="evenodd" d="M148.219 18.0458V24.2388C148.219 25.0265 148.545 25.8142 149.903 25.8142C150.419 25.8142 150.989 25.7057 151.586 25.5156V28.4218C150.745 28.7207 149.903 28.8564 149.007 28.8564C146.617 28.8564 144.553 27.6884 144.553 24.5377V18.0458H142.38V15.1667H144.553V12.8851L148.219 10.1689V15.1667H151.586V18.0458H148.219Z" fill="#3433FA"/>
<path fill-rule="evenodd" clip-rule="evenodd" d="M152.669 25.094L155.531 23.8133C155.852 24.6405 156.36 25.8945 158.152 25.8945C159.462 25.8945 159.943 25.2274 159.943 24.6938C159.943 22.6661 153.392 23.8668 153.392 19.0908C153.392 16.3426 155.825 15.1152 158.285 15.1152C160.639 15.1152 162.377 16.2358 163.393 17.997L160.612 19.5444C160.211 18.824 159.596 17.8636 158.205 17.8636C157.323 17.8636 156.815 18.2903 156.815 18.7972C156.815 20.665 163.5 19.4376 163.5 24.3202C163.5 27.4953 160.719 28.856 158.232 28.856C155.397 28.856 153.285 27.0418 152.669 25.094Z" fill="#3433FA"/>
<path fill-rule="evenodd" clip-rule="evenodd" d="M16.7592 0.375C27.2192 0.375 35.699 8.96555 35.699 19.5622L35.6964 19.8797C35.5292 30.3302 27.1146 38.7496 16.7592 38.7496H4.32339C3.97255 38.7496 3.68795 38.4612 3.68795 38.1058V33.0141H6.97746V35.4168H16.5216C25.11 35.4168 32.2765 28.5079 32.4076 19.8085C32.5408 10.954 25.4696 3.70772 16.7592 3.70772H6.97746V8.42832H9.69638C10.0477 8.42832 10.3321 8.71664 10.3321 9.07206V11.1173C10.3321 11.4727 10.0477 11.761 9.69638 11.761H1.13553C0.784466 11.761 0.500093 11.4727 0.500093 11.1173V9.07206C0.500093 8.71664 0.784466 8.42832 1.13553 8.42832H3.68795V1.01897C3.68795 0.663322 3.97255 0.375 4.32339 0.375H16.7592ZM6.92196 23.3598V26.6979H9.61753C9.96558 26.6979 10.2475 26.9797 10.2475 27.3274V29.3259C10.2475 29.6736 9.96558 29.9554 9.61753 29.9554H1.12998C0.781931 29.9554 0.5 29.6736 0.5 29.3259V27.3274C0.5 26.9797 0.781931 26.6979 1.12998 26.6979H3.66047V23.3598H6.92196ZM6.92196 14.016V17.3515H9.61753C9.96558 17.3515 10.2475 17.6335 10.2475 17.9814V19.9819C10.2475 20.3296 9.96558 20.6116 9.61753 20.6116H1.12998C0.781931 20.6116 0.5 20.3296 0.5 19.9819V17.9814C0.5 17.6335 0.781931 17.3515 1.12998 17.3515H3.66047V14.016H6.92196ZM25.3165 12.9168C25.6675 12.9168 25.9518 13.2021 25.9518 13.554V15.5776C25.9518 15.9293 25.6675 16.2146 25.3165 16.2146H14.6735C14.3228 16.2146 14.0382 15.9293 14.0382 15.5776V13.554C14.0382 13.2021 14.3228 12.9168 14.6735 12.9168H25.3165Z" fill="#3433FA"/>
</svg>
