<?xml version="1.0" encoding="utf-8"?>
<!-- Generator: Adobe Illustrator 27.7.0, SVG Export Plug-In . SVG Version: 6.00 Build 0)  -->
<svg version="1.1" id="Layer_1" xmlns="http://www.w3.org/2000/svg" xmlns:xlink="http://www.w3.org/1999/xlink" x="0px" y="0px"
	 viewBox="0 0 4262.1 457" style="enable-background:new 0 0 4262.1 457;" xml:space="preserve">
<style type="text/css">
	.st0{fill:none;stroke:url(#SVGID_1_);stroke-width:8;stroke-linecap:round;}
	
		.st1{fill:none;stroke:url(#SVGID_00000103257002392675222110000009846106630358003639_);stroke-width:3;stroke-linecap:round;stroke-dasharray:24,24;}
</style>
<linearGradient id="SVGID_1_" gradientUnits="userSpaceOnUse" x1="102.7223" y1="292" x2="4109.2222" y2="292">
	<stop  offset="0" style="stop-color:#FFFFFF"/>
	<stop  offset="0.2286" style="stop-color:#D5D5FD"/>
	<stop  offset="0.48" style="stop-color:#FFFFFF"/>
	<stop  offset="0.7504" style="stop-color:#D5D5FD"/>
	<stop  offset="0.9698" style="stop-color:#FFFFFF"/>
</linearGradient>
<path class="st0" d="M106.7,454c209.7-94,709.9-324,1033.5-324c404.5,0,684.5,318,1040,318s444-186,677-186s369,171,585.5,171
	s435-224,662.5-224"/>
<linearGradient id="SVGID_00000067929813311324649660000005354528200030177712_" gradientUnits="userSpaceOnUse" x1="325.2224" y1="281.5" x2="4163.7222" y2="281.5">
	<stop  offset="2.624450e-02" style="stop-color:#FFFFFF"/>
	<stop  offset="0.1129" style="stop-color:#D5D5FD"/>
	<stop  offset="0.8798" style="stop-color:#D5D5FD"/>
	<stop  offset="1" style="stop-color:#FFFFFF"/>
</linearGradient>
<path style="fill:none;stroke:url(#SVGID_00000067929813311324649660000005354528200030177712_);stroke-width:3;stroke-linecap:round;stroke-dasharray:24,24;" d="
	M326.7,141.5c201.7,93.3,684,280,1000,280c395,0,702-173,916-173s217,156.5,545,156.5c302,0,436-223.5,646-223.5
	S3767.2,401,4162.2,401"/>
</svg>
